# xmcd
#
# Track frame offsets: 
#        150
#        12744
#        26195
#        42023
#        58190
#        72104
#        87330
#        102647
#        113639
#        128339
#        154944
#        170757
#
# Disc length: 2462 seconds
#
# Revision: 0
# Processed by: cddbd v1.5.2PL0 Copyright (c) Steve Scherf et al.
# Submitted via: ExactAudioCopyFreeDBPlugin 1.0
#
DISCID=a2099c0c
DTITLE=Brother Dege and The Brethren - Scorched Earth Policy
DYEAR=2015
DGENRE=Blues
TTITLE0=Set It Off
TTITLE1=Pay No Mind
TTITLE2=Somewhere
TTITLE3=Day I Was Born
TTITLE4=Supernaut
TTITLE5=Yellabone
TTITLE6=Tower Of Babel
TTITLE7=Revolution
TTITLE8=Souls Of The Darklands
TTITLE9=Calabasas
TTITLE10=Jones For War
TTITLE11=Way Of The Lamb
EXTD=
EXTT0=
EXTT1=
EXTT2=
EXTT3=
EXTT4=
EXTT5=
EXTT6=
EXTT7=
EXTT8=
EXTT9=
EXTT10=
EXTT11=
PLAYORDER=
